<?xml version="1.0" standalone="no"?>
<!DOCTYPE svg PUBLIC "-//W3C//DTD SVG 20010904//EN"
 "http://www.w3.org/TR/2001/REC-SVG-20010904/DTD/svg10.dtd">
<svg version="1.0" xmlns="http://www.w3.org/2000/svg"
 width="260.000000pt" height="260.000000pt" viewBox="0 0 260.000000 260.000000"
 preserveAspectRatio="xMidYMid meet">
<metadata>
Created by potrace 1.14, written by Peter Selinger 2001-2017
</metadata>
<g transform="translate(0.000000,260.000000) scale(0.100000,-0.100000)"
fill="#000000" stroke="none">
<path d="M1305 2560 c-14 -22 -25 -42 -25 -46 0 -3 -13 -23 -29 -43 -15 -20
-31 -46 -35 -58 -4 -13 -12 -23 -17 -23 -5 0 -9 -7 -9 -15 0 -8 -5 -15 -11
-15 -5 0 -7 -4 -4 -10 3 -5 2 -10 -3 -10 -4 0 -20 -22 -34 -50 -14 -27 -28
-47 -31 -44 -3 3 -8 -5 -12 -17 -4 -13 -23 -44 -41 -71 -19 -26 -34 -50 -34
-52 0 -8 -65 -111 -82 -130 -10 -10 -15 -23 -12 -28 3 -4 0 -8 -5 -8 -6 0 -11
-7 -11 -15 0 -8 -4 -15 -9 -15 -5 0 -14 -13 -21 -30 -7 -16 -16 -30 -21 -30
-5 0 -9 -5 -9 -11 0 -6 -9 -22 -20 -36 -11 -14 -18 -29 -15 -33 3 -4 -2 -10
-10 -14 -8 -3 -15 -12 -15 -19 0 -8 -7 -20 -15 -27 -14 -12 -17 -38 -5 -50 9
-9 50 -97 50 -108 0 -5 7 -12 15 -16 8 -3 15 -1 15 5 0 6 5 7 10 4 6 -3 10 0
10 7 0 7 23 46 50 87 28 40 50 78 50 82 0 5 4 9 9 9 5 0 14 14 21 30 7 17 16
30 21 30 5 0 9 7 9 15 0 8 5 15 10 15 6 0 9 3 8 8 -3 7 24 49 52 81 8 10 16
24 18 32 2 7 7 16 12 19 5 3 10 12 12 20 2 8 13 26 26 40 12 14 25 33 28 43 3
9 10 17 15 17 5 0 9 5 9 11 0 6 14 30 30 54 17 24 30 48 30 53 0 6 3 12 8 14
10 4 52 65 52 77 0 19 39 21 355 21 l323 0 18 27 c9 15 21 32 26 38 5 5 17 21
28 34 11 13 20 27 20 30 0 3 11 19 25 34 14 15 23 27 21 27 -6 0 16 28 41 55
7 7 9 15 6 19 -4 3 -1 6 5 6 7 0 12 5 12 10 0 7 -155 10 -445 10 l-445 0 -25
-40z"/>
<path d="M136 2448 c3 -5 1 -8 -3 -8 -5 0 -9 -521 -9 -1167 l0 -1168 132 0
c76 0 130 4 127 9 -4 5 0 6 7 1 20 -12 492 -12 509 0 12 8 13 7 6 -5 -7 -12
-6 -13 6 -3 12 9 14 54 13 260 -2 245 -6 293 -27 293 -6 0 -8 3 -4 6 3 4 -1
21 -10 38 -10 17 -16 34 -15 38 1 5 -2 8 -7 8 -7 0 -22 36 -20 49 0 2 -3 7 -8
10 -12 9 -83 154 -83 169 0 6 -4 12 -9 12 -7 0 -19 28 -19 47 0 3 -4 9 -9 12
-9 7 -53 94 -53 106 0 5 -7 17 -16 27 -14 14 -14 20 -4 33 7 8 9 15 4 15 -5 0
-3 4 4 9 7 4 15 14 16 22 2 8 11 32 21 54 10 22 18 43 17 48 -1 4 2 7 7 7 14
0 21 43 9 57 -6 7 -7 13 -2 13 5 0 2 5 -6 10 -8 5 -15 14 -15 19 0 5 -9 20
-20 33 -11 14 -21 31 -23 39 -2 8 -8 16 -13 17 -5 2 -9 8 -9 14 0 5 -13 29
-30 53 -25 36 -28 46 -17 57 7 7 16 21 20 31 3 9 11 17 17 17 6 0 8 5 5 10 -3
6 0 13 9 16 9 3 12 12 9 21 -4 11 -2 14 5 9 7 -4 12 -3 12 2 0 6 38 67 84 136
46 69 81 126 78 126 -4 0 1 5 11 11 9 5 17 17 17 24 0 8 4 15 9 15 5 0 14 14
21 30 7 17 16 30 21 30 5 0 9 7 9 15 0 8 3 15 8 15 4 0 7 59 7 131 0 119 -1
130 -17 125 -10 -2 -16 0 -12 5 7 12 -3 11 -28 -2 -15 -8 -19 -8 -14 0 4 6 4
11 1 11 -4 0 -16 -5 -27 -11 -15 -8 -19 -8 -14 0 8 12 -21 11 -41 -2 -6 -4
-14 -4 -16 0 -7 10 -281 8 -297 -2 -9 -5 -11 -4 -6 3 9 15 1 15 -26 1 -15 -8
-19 -8 -14 0 4 6 4 11 1 11 -4 0 -16 -5 -27 -11 -15 -8 -19 -8 -14 0 4 6 4 11
1 11 -4 0 -16 -5 -27 -11 -15 -8 -19 -8 -14 0 8 12 -21 11 -40 -2 -6 -3 -14
-3 -18 0 -9 10 -145 10 -140 1z"/>
<path d="M1470 2203 c0 -7 -3 -12 -7 -12 -21 3 -33 -2 -33 -16 0 -8 -4 -15
-10 -15 -5 0 -10 -5 -10 -10 0 -6 -9 -23 -19 -38 -11 -15 -54 -81 -97 -147
-43 -66 -81 -122 -86 -123 -4 -2 -6 -8 -2 -13 3 -5 0 -9 -5 -9 -6 0 -11 -7
-11 -15 0 -7 -6 -18 -13 -22 -7 -4 -24 -29 -37 -55 -14 -27 -28 -48 -31 -48
-4 0 -12 -13 -19 -30 -7 -16 -16 -30 -21 -30 -5 0 -9 -4 -9 -10 0 -11 -60
-102 -75 -112 -5 -4 -6 -8 -2 -8 4 0 -1 -9 -12 -21 -11 -12 -25 -34 -31 -50
-7 -16 -16 -29 -21 -29 -5 0 -9 -7 -9 -15 0 -8 -4 -15 -10 -15 -5 0 -12 -11
-16 -24 -3 -14 -12 -27 -20 -30 -8 -3 -14 -12 -14 -20 0 -8 -6 -19 -12 -23
-32 -20 -62 -113 -37 -113 5 0 7 -5 4 -10 -3 -5 -1 -10 4 -10 6 0 11 -7 11
-16 0 -9 5 -12 13 -8 6 4 9 4 5 -1 -6 -7 35 -98 52 -115 3 -3 16 -26 30 -53
13 -26 28 -47 32 -47 5 0 8 -3 7 -7 -2 -16 14 -53 22 -53 5 0 9 -6 9 -12 0 -7
9 -24 20 -38 11 -14 20 -32 20 -41 0 -9 7 -19 15 -23 8 -3 15 -15 15 -26 0
-11 5 -20 11 -20 5 0 7 -5 4 -10 -3 -6 -1 -10 4 -10 6 0 11 -7 11 -15 0 -8 4
-15 8 -15 8 0 36 -60 33 -72 0 -5 3 -8 9 -8 5 0 10 -6 10 -14 0 -7 7 -19 15
-26 8 -7 12 -16 9 -21 -3 -5 0 -9 5 -9 6 0 11 -5 11 -11 0 -6 9 -23 20 -39 11
-15 17 -30 13 -34 -3 -3 -1 -6 5 -6 11 0 28 -38 24 -53 -1 -5 1 -6 6 -3 5 3
15 -10 22 -29 8 -19 17 -35 22 -35 4 0 8 -7 8 -15 0 -8 8 -24 18 -35 9 -11 17
-24 18 -28 0 -4 10 -23 22 -43 l22 -36 332 1 c183 1 338 5 345 9 6 4 14 3 17
-2 7 -11 25 -9 45 3 8 6 12 5 8 0 -4 -7 174 -11 201 -5 2 1 -9 17 -24 36 -14
19 -23 35 -18 35 4 0 1 6 -7 13 -17 13 -89 113 -89 123 0 3 -11 20 -25 38 -14
18 -23 36 -20 39 3 4 2 5 -1 2 -7 -5 -84 110 -84 126 0 6 -4 7 -10 4 -5 -3
-10 -1 -10 5 0 12 -41 73 -52 78 -5 2 -8 8 -8 14 0 5 -25 46 -56 89 -30 43
-53 79 -50 79 3 0 -2 9 -11 19 -30 33 -43 50 -43 56 0 6 -33 55 -60 87 -8 10
-13 20 -10 21 3 1 -8 16 -23 32 -15 17 -30 40 -33 52 -4 13 -10 21 -14 18 -5
-3 -12 5 -16 17 -4 13 -18 36 -31 52 -22 26 -22 30 -8 46 8 9 15 21 15 27 0 6
7 14 16 17 8 3 13 10 10 15 -3 4 8 21 24 37 16 16 30 34 30 39 0 6 16 34 35
64 19 29 35 56 35 61 0 5 4 10 8 12 4 2 35 46 67 98 33 52 63 97 68 98 4 2 7
10 7 18 0 8 5 14 10 14 6 0 10 5 10 11 0 7 16 34 35 60 19 27 35 51 35 53 0 3
20 34 45 70 25 37 45 67 44 69 -2 10 15 36 22 31 5 -3 9 0 9 6 0 7 14 32 30
57 17 24 30 46 30 48 0 2 13 24 29 47 22 31 27 46 19 56 -8 9 -14 9 -23 2 -9
-8 -15 -8 -20 0 -5 8 -10 8 -20 0 -10 -8 -15 -8 -20 0 -5 8 -10 8 -20 0 -10
-8 -15 -8 -20 0 -5 8 -10 8 -20 0 -10 -8 -15 -8 -20 0 -5 8 -10 8 -20 0 -10
-8 -15 -8 -20 0 -5 8 -10 8 -20 0 -10 -8 -15 -8 -20 0 -5 8 -10 8 -20 0 -10
-8 -15 -8 -20 0 -5 8 -10 8 -20 0 -7 -6 -16 -7 -19 -2 -6 10 -36 9 -53 -1 -6
-4 -15 -3 -18 3 -4 7 -11 7 -18 2 -16 -13 -47 -11 -47 2 0 7 -3 7 -8 1 -10
-14 -32 -17 -32 -4 0 8 -5 8 -15 -1 -12 -10 -15 -10 -15 1 0 12 -2 12 -9 0 -5
-7 -11 -9 -14 -4 -6 10 -48 10 -64 0 -7 -4 -15 -3 -18 3 -5 8 -11 8 -20 0 -10
-8 -15 -8 -20 0 -5 8 -10 8 -20 0 -9 -8 -15 -8 -20 0 -3 6 -12 7 -18 3 -18
-11 -51 -10 -59 2 -5 6 -8 6 -8 -2z"/>
<path d="M1829 1263 c-1 -4 -1 -11 0 -15 0 -5 -3 -8 -7 -8 -4 0 -16 -14 -26
-30 l-18 -31 43 -66 c24 -36 48 -71 54 -77 5 -6 19 -28 29 -49 11 -20 22 -37
26 -37 4 0 13 -13 20 -30 7 -16 16 -30 21 -30 4 0 11 -10 15 -22 3 -12 15 -30
25 -41 10 -11 15 -25 12 -31 -3 -6 -3 -8 2 -4 4 4 37 -39 73 -95 71 -109 80
-119 100 -112 6 2 12 1 12 -3 0 -4 9 -8 20 -8 11 0 20 3 20 7 0 3 11 4 25 1
21 -4 24 -1 18 14 -3 11 -9 21 -12 24 -11 9 -47 64 -71 108 -13 23 -27 42 -32
42 -4 0 -8 7 -8 15 0 8 -5 15 -12 15 -6 0 -9 3 -5 6 3 3 1 11 -4 18 -39 46
-49 60 -49 67 0 4 -20 37 -45 72 -25 36 -45 69 -45 75 0 5 -7 12 -15 16 -8 3
-15 9 -15 14 0 11 -83 137 -108 166 -10 10 -16 21 -14 25 2 3 -4 7 -12 9 -9 2
-17 0 -17 -5z"/>
</g>
</svg>
